<svg width="102" height="40" viewBox="0 0 102 40" fill="none" xmlns="http://www.w3.org/2000/svg">
<path d="M39.4927 14.4344H39.5171C40.0217 14.4019 40.6727 14.3856 41.4702 14.3856C42.7072 14.3856 43.6512 14.7681 44.3023 15.5331C44.9615 16.298 45.291 17.2909 45.291 18.5116C45.291 19.7485 44.9899 20.8228 44.3877 21.7342C43.7937 22.6375 42.8618 23.0892 41.5923 23.0892C40.8436 23.0892 40.1031 22.9956 39.3706 22.8084C39.3706 19.9439 39.4113 17.1525 39.4927 14.4344ZM44.7906 18.5116C44.7906 17.4618 44.4732 16.5788 43.8384 15.8626C43.2118 15.1465 42.3817 14.8291 41.3482 14.9105C41.2831 18.0436 41.2505 20.5542 41.2505 22.4422C41.4133 22.4911 41.6615 22.5318 41.9951 22.5643C42.9473 22.4585 43.6512 22.0109 44.107 21.2215C44.5627 20.4321 44.7906 19.5288 44.7906 18.5116ZM37.149 29.8641C37.1327 30.4663 36.1887 30.8569 34.3169 31.036C34.2518 31.1662 34.2518 31.3574 34.3169 31.6097C35.7004 31.5609 37.1205 31.5365 38.5772 31.5365C40.3106 31.5365 41.9748 31.5609 43.5699 31.6097C43.635 31.4795 43.635 31.2883 43.5699 31.036C40.868 30.8732 39.509 30.4826 39.4927 29.8641C39.4113 27.5773 39.3706 25.5347 39.3706 23.7362C40.2902 23.9234 41.1407 24.0169 41.9219 24.0169C43.2565 26.499 45.0144 29.0055 47.1953 31.5365C47.6104 31.5365 48.2085 31.5405 48.9898 31.5487C49.7792 31.5568 50.4872 31.565 51.1138 31.5731C51.7486 31.5812 52.3508 31.5934 52.9204 31.6097C52.9855 31.4632 52.9855 31.272 52.9204 31.036C51.5858 30.9383 50.4587 30.6128 49.5391 30.0594C48.6276 29.4979 47.5616 28.4644 46.3409 26.9588C45.5108 25.909 44.7621 24.8023 44.0948 23.6385C45.2992 23.2398 46.2473 22.5765 46.939 21.6488C47.6307 20.721 47.9766 19.6753 47.9766 18.5116C47.9766 17.0467 47.5046 15.8626 46.5606 14.9593C45.6166 14.0479 44.3104 13.5921 42.6421 13.5921C37.1408 13.6572 34.3739 13.6572 34.3413 13.5921C34.2925 13.7874 34.2925 13.9787 34.3413 14.1659C36.2131 14.3449 37.1571 14.7355 37.1734 15.3377C37.2548 17.2502 37.2954 19.5248 37.2954 22.1615C37.2954 24.7412 37.2466 27.3088 37.149 29.8641ZM36.6485 29.8397C36.7461 27.8052 36.795 25.2458 36.795 22.1615C36.795 19.541 36.7543 17.2746 36.6729 15.3622C36.6566 15.061 35.7492 14.821 33.9507 14.6419C33.8124 14.1048 33.8286 13.5799 33.9995 13.0672C34.8947 13.1161 35.8672 13.1405 36.917 13.1405C37.9668 13.1405 39.1713 13.1323 40.5303 13.1161C41.8894 13.0998 42.8863 13.0916 43.521 13.0916C45.4904 13.0916 47.0367 13.5921 48.1597 14.5931C49.2827 15.586 49.8443 16.8921 49.8443 18.5116C49.8443 19.659 49.5147 20.717 48.8555 21.6854C48.1963 22.6538 47.3093 23.3862 46.1944 23.8827C46.7478 24.786 47.3907 25.7137 48.1231 26.6659C48.9857 27.8133 49.8321 28.7248 50.6621 29.4002C51.5004 30.0757 52.4281 30.4623 53.4453 30.5599C53.5756 31.0807 53.5593 31.6056 53.3965 32.1346C52.2328 32.1021 50.0925 32.0695 46.9756 32.037C44.6888 29.3677 42.9025 26.8612 41.6167 24.5174H41.2505C41.2505 26.0311 41.2912 27.8052 41.3726 29.8397C41.3726 29.8885 41.3929 29.9374 41.4336 29.9862C41.4743 30.035 41.633 30.1123 41.9097 30.2181C42.1864 30.3239 42.6055 30.4175 43.167 30.4989C43.7367 30.5721 44.0541 30.6169 44.1192 30.6332C44.2575 31.0889 44.2331 31.5894 44.0459 32.1346C41.043 32.0695 39.2201 32.037 38.5772 32.037C38.1377 32.037 36.6037 32.0695 33.9751 32.1346C33.7717 31.5731 33.7717 31.0482 33.9751 30.5599C35.7411 30.3809 36.6322 30.1408 36.6485 29.8397ZM62.9058 28.5824C62.9709 26.5479 62.9709 24.5093 62.9058 22.4666C62.9058 22.1818 62.2914 21.9377 61.0625 21.7342C60.8754 21.2378 60.8754 20.7455 61.0625 20.2572H66.336C66.5638 20.3467 66.7266 20.4443 66.8242 20.5501C66.93 20.6559 67.0236 20.8106 67.105 21.014C67.105 21.1605 67.0847 21.3924 67.044 21.7098C67.0033 22.0272 66.9829 22.2795 66.9829 22.4666C66.9016 25.1441 66.9016 27.4756 66.9829 29.4613C67.5689 29.6485 68.1874 29.7583 68.8384 29.7909C69.0174 30.271 69.0174 30.7878 68.8384 31.3412C67.7723 31.4063 66.454 31.7725 64.8833 32.4398C63.9963 32.3747 63.3371 32.1061 62.9058 31.6341V31.3167C61.7909 32.0329 60.4685 32.391 58.9385 32.391C57.8317 32.391 57.0464 32.0899 56.5826 31.4876C56.1187 30.8854 55.8786 29.9414 55.8623 28.6556C55.8786 26.613 55.8786 24.55 55.8623 22.4666C55.8623 22.1818 55.2438 21.9377 54.0069 21.7342C53.8278 21.2378 53.8278 20.7455 54.0069 20.2572H59.3047C59.5407 20.3467 59.7076 20.4443 59.8052 20.5501C59.911 20.6559 60.0046 20.8106 60.086 21.014C60.086 21.1605 60.0656 21.3924 60.0249 21.7098C59.9842 22.0272 59.9639 22.2795 59.9639 22.4666C59.9069 24.3628 59.9069 26.2956 59.9639 28.265C59.9964 29.1927 60.1633 29.7339 60.4644 29.8885C61.0585 29.7339 61.8723 29.2985 62.9058 28.5824ZM63.4063 22.4666C63.4551 24.5825 63.4551 26.7066 63.4063 28.8387C61.8926 29.9211 60.7248 30.4623 59.9029 30.4623C58.788 30.4623 58.2305 29.7298 58.2305 28.265C58.1817 26.2956 58.1817 24.3628 58.2305 22.4666C58.2305 22.2469 58.2508 21.9824 58.2915 21.6732C58.3404 21.3639 58.3648 21.1686 58.3648 21.0873C58.2753 20.9001 58.1573 20.7739 58.0108 20.7088C56.8063 20.7902 55.606 20.7902 54.4097 20.7088C54.3446 20.896 54.3446 21.0873 54.4097 21.2826C55.6955 21.486 56.3465 21.8807 56.3628 22.4666C56.3791 24.5337 56.3791 26.5967 56.3628 28.6556C56.3465 29.7624 56.5378 30.5803 56.9366 31.1092C57.3353 31.6301 58.0026 31.8905 58.9385 31.8905C60.1673 31.8905 61.6566 31.1296 63.4063 29.6078V31.39C63.4714 31.5202 63.6138 31.626 63.8335 31.7074C64.9973 31.2761 66.5069 30.9872 68.3623 30.8407C68.4274 30.6372 68.4274 30.446 68.3623 30.2669C66.9626 30.21 65.9291 30.0431 65.2617 29.7665C65.1966 26.8612 65.1966 24.4279 65.2617 22.4666C65.2617 22.2469 65.2821 21.9824 65.3228 21.6732C65.3635 21.3639 65.3838 21.1686 65.3838 21.0873C65.3024 20.9001 65.1844 20.7739 65.0298 20.7088C63.8498 20.7739 62.6576 20.7739 61.4532 20.7088C61.3881 20.896 61.3881 21.0873 61.4532 21.2826C62.739 21.486 63.39 21.8807 63.4063 22.4666ZM78.0181 30.9749C76.0812 30.7959 75.1047 30.4053 75.0884 29.8031C75.007 25.2946 74.9745 19.7974 74.9908 13.3114C74.9256 13.1812 74.7832 13.0713 74.5635 12.9818C73.4323 13.5189 72.2564 13.8526 71.0357 13.9828C70.9868 14.1862 70.9868 14.3775 71.0357 14.5565C71.9553 14.6135 72.6551 14.7803 73.1353 15.057C73.2004 21.1768 73.1923 26.0921 73.1109 29.8031C73.0946 30.4053 72.4029 30.7959 71.0357 30.9749C70.9543 31.1784 70.9543 31.3778 71.0357 31.5731C72.9237 31.508 75.2512 31.508 78.0181 31.5731C78.0995 31.3778 78.0995 31.1784 78.0181 30.9749ZM78.4576 30.5233C78.5959 31.0278 78.5959 31.5202 78.4576 32.0003C75.3244 31.9352 72.6999 31.9352 70.584 32.0003C70.4538 31.5202 70.4538 31.0278 70.584 30.5233C71.9187 30.3931 72.5941 30.1449 72.6104 29.7787C72.708 25.0016 72.7162 20.1961 72.6348 15.3622C72.0895 15.1913 71.406 15.0814 70.584 15.0326C70.405 14.5524 70.405 14.0357 70.584 13.4823C71.821 13.4172 73.2045 13.051 74.7344 12.3836C75.6214 12.4487 76.2806 12.7173 76.7119 13.1893C76.6794 20.4403 76.7119 25.9701 76.8096 29.7787C76.8259 30.1449 77.3752 30.3931 78.4576 30.5233ZM83.731 14.3856C85.5702 14.3856 86.4898 15.0529 86.4898 16.3875C86.4898 17.7222 85.5702 18.3895 83.731 18.3895C83.4543 18.3895 83.1939 18.3366 82.9497 18.2308C82.7137 18.125 82.5062 17.9826 82.3272 17.8036C82.1481 17.6164 82.0057 17.4007 81.8999 17.1566C81.7941 16.9124 81.7412 16.6561 81.7412 16.3875C81.7412 16.119 81.7941 15.8626 81.8999 15.6185C82.0057 15.3744 82.1481 15.1628 82.3272 14.9837C82.5062 14.7966 82.7137 14.6501 82.9497 14.5443C83.1939 14.4385 83.4543 14.3856 83.731 14.3856ZM82.6079 15.3377C82.3638 15.6226 82.2417 15.9725 82.2417 16.3875C82.2417 16.5991 82.2743 16.7985 82.3394 16.9857C82.4126 17.1647 82.5103 17.3234 82.6324 17.4618C82.7544 17.592 82.8928 17.6978 83.0474 17.7791C83.2102 17.8524 83.3811 17.889 83.5601 17.889C83.731 17.889 83.8978 17.8524 84.0606 17.7791C84.2233 17.6978 84.3658 17.592 84.4878 17.4618C84.6099 17.3234 84.7076 17.1647 84.7808 16.9857C84.854 16.7985 84.8907 16.5991 84.8907 16.3875C84.8907 16.176 84.854 15.9806 84.7808 15.8016C84.7076 15.6144 84.6099 15.4557 84.4878 15.3255C84.3658 15.1872 84.2233 15.0814 84.0606 15.0082C83.8978 14.9268 83.731 14.8861 83.5601 14.8861C83.3892 14.8861 83.2224 14.9227 83.0596 14.9959C82.8968 15.0692 82.7463 15.1831 82.6079 15.3377ZM87.5396 30.9749C85.6027 30.7959 84.6262 30.4053 84.6099 29.8031C84.5285 27.3617 84.496 24.3628 84.5122 20.8065C84.4471 20.6763 84.3047 20.5705 84.085 20.4891C82.9538 21.0181 81.7779 21.3517 80.5572 21.4901C80.5083 21.6854 80.5083 21.8766 80.5572 22.0638C81.4768 22.1126 82.1766 22.2795 82.6568 22.5643C82.73 25.5998 82.7219 28.0127 82.6324 29.8031C82.6161 30.4053 81.9243 30.7959 80.5572 30.9749C80.4758 31.1784 80.4758 31.3778 80.5572 31.5731C82.8928 31.5243 85.2202 31.5243 87.5396 31.5731C87.621 31.3778 87.621 31.1784 87.5396 30.9749ZM87.9912 30.5233C88.1214 31.0278 88.1214 31.5202 87.9912 32.0003C85.3708 31.919 82.7463 31.919 80.1177 32.0003C79.9794 31.5202 79.9794 31.0278 80.1177 30.5233C81.4442 30.3931 82.1156 30.1449 82.1319 29.7787C82.2377 27.5 82.2458 25.1929 82.1563 22.8573C81.611 22.6945 80.9315 22.5887 80.1177 22.5399C79.9305 22.0516 79.9305 21.5348 80.1177 20.9896C81.3465 20.9245 82.73 20.5583 84.2681 19.891C85.147 19.9561 85.8021 20.2206 86.2334 20.6844C86.2009 24.6883 86.2334 27.7197 86.3311 29.7787C86.3555 30.1449 86.9089 30.3931 87.9912 30.5233Z" fill="#8D8D8D"/>
<path d="M88.2609 34.9615C88.1609 34.9615 88.1109 34.8531 88.1109 34.6365C88.1109 34.5865 88.1109 34.5365 88.1109 34.4865C88.1109 34.4365 88.1192 34.3781 88.1359 34.3115C88.3859 32.4281 88.9692 30.4948 89.8859 28.5115C90.8025 26.5281 91.8609 24.5615 93.0609 22.6115C92.7109 21.7781 92.3859 20.9365 92.0859 20.0865C91.7859 19.2198 91.5359 18.4448 91.3359 17.7615C91.1359 17.0615 90.9942 16.5531 90.9109 16.2365C90.7442 15.5531 90.6192 14.9948 90.5359 14.5615C90.4692 14.1115 90.4359 13.7531 90.4359 13.4865C90.4359 13.0365 90.5359 12.8115 90.7359 12.8115C90.8859 12.8115 91.0525 12.9198 91.2359 13.1365C91.4359 13.3531 91.6192 13.6115 91.7859 13.9115C91.9525 14.2115 92.0609 14.4948 92.1109 14.7615C92.2609 15.4115 92.4275 16.0865 92.6109 16.7865C92.7942 17.4698 92.9692 18.1198 93.1359 18.7365C93.3025 19.3531 93.4442 19.8865 93.5609 20.3365C93.6942 20.7865 93.7859 21.0948 93.8359 21.2615C94.4025 20.4615 95.0192 19.5948 95.6859 18.6615C96.3692 17.7115 97.0609 16.8115 97.7609 15.9615C98.4775 15.0948 99.1525 14.3865 99.7859 13.8365C100.036 13.6365 100.286 13.5365 100.536 13.5365C100.719 13.5365 100.878 13.5865 101.011 13.6865C101.144 13.7865 101.211 13.9115 101.211 14.0615C101.211 14.2281 101.119 14.3948 100.936 14.5615C100.419 15.0115 99.8609 15.5781 99.2609 16.2615C98.6775 16.9281 98.0775 17.6531 97.4609 18.4365C96.8609 19.2198 96.2775 19.9948 95.7109 20.7615C95.1442 21.5115 94.6359 22.1865 94.1859 22.7865C94.3025 23.0198 94.4775 23.4198 94.7109 23.9865C94.9442 24.5531 95.2442 25.2115 95.6109 25.9615C95.9775 26.7115 96.4109 27.4865 96.9109 28.2865C97.2442 28.8031 97.5525 29.1781 97.8359 29.4115C98.1359 29.6448 98.3942 29.7615 98.6109 29.7615C98.9775 29.7615 99.2359 29.5198 99.3859 29.0365C99.5525 28.5365 99.6359 27.9281 99.6359 27.2115C99.6359 26.5948 99.6025 25.9448 99.5359 25.2615C99.4859 24.5615 99.4192 23.9031 99.3359 23.2865C99.2692 22.6531 99.2025 22.1115 99.1359 21.6615C99.0692 21.2115 99.0192 20.9198 98.9859 20.7865C98.9525 20.5531 98.9275 20.3615 98.9109 20.2115C98.8942 20.0615 98.8859 19.9365 98.8859 19.8365C98.8859 19.6531 98.9109 19.5615 98.9609 19.5615C99.0275 19.5615 99.1109 19.6781 99.2109 19.9115C99.3275 20.1281 99.4275 20.3698 99.5109 20.6365C99.5942 20.8531 99.6942 21.2115 99.8109 21.7115C99.9275 22.2115 100.044 22.7865 100.161 23.4365C100.278 24.0865 100.369 24.7615 100.436 25.4615C100.519 26.1615 100.561 26.8365 100.561 27.4865C100.561 28.6531 100.411 29.4781 100.111 29.9615C99.8275 30.4448 99.4609 30.6865 99.0109 30.6865C98.4942 30.6865 97.9275 30.4281 97.3109 29.9115C96.7109 29.3948 96.1859 28.7948 95.7359 28.1115C95.2859 27.4281 94.8775 26.7198 94.5109 25.9865C94.1442 25.2531 93.7775 24.4448 93.4109 23.5615C92.7109 24.5948 92.0275 25.7115 91.3609 26.9115C90.7109 28.1115 90.1442 29.3198 89.6609 30.5365C89.1942 31.7365 88.8859 32.8865 88.7359 33.9865C88.7025 34.2865 88.6359 34.5198 88.5359 34.6865C88.4359 34.8698 88.3442 34.9615 88.2609 34.9615Z" fill="#3D59CC"/>
<path d="M100.267 30.239C98.9817 29.8857 97.696 29.5324 96.4104 29.1791C95.9942 31.1252 93.6147 32.7245 91.0048 33.6179C80.0032 36.9396 67.3025 35.0069 55.6639 32.084C48.3291 30.1432 41.1331 27.4992 34.4885 23.8575C28.3368 20.277 20.103 15.2252 20.8285 8.40977C23.382 2.01392 33.0791 1.63557 40.1944 1.53464C47.7823 1.62212 55.3854 2.86529 62.7919 4.80238C74.5039 8.06064 86.5501 12.4845 95.2386 21.3835C97.2215 23.6302 99.09 26.6081 98.3389 29.7091C99.1617 26.6228 97.3415 23.5594 95.3881 21.2524C86.8136 12.0888 74.7921 7.38003 63.0447 3.83486C55.6115 1.71899 47.9581 0.289802 40.2077 0.0302135C36.3336 -0.0800741 32.4154 0.0869334 28.5734 0.944208C24.8929 1.85536 20.3369 3.30409 18.8999 7.87982C17.8216 12.5666 21.0141 16.2756 23.725 19.0271C26.6017 21.8231 29.8921 24.0627 33.2853 26.0403C40.0933 29.9631 47.4127 32.8279 54.9055 34.9865C66.9003 38.201 79.4955 40.7004 92.2505 37.2313C95.2697 36.1995 99.03 34.4584 100.267 30.239ZM96.4104 29.1791L100.267 30.239L98.3389 29.7091L96.4104 29.1791Z" fill="#3D59CC"/>
<path d="M100.229 30.7704C98.9429 30.4171 97.6572 30.0638 96.3715 29.7105C95.9359 31.7189 93.5555 33.3573 90.9212 34.289C79.8249 37.7502 66.9611 35.8205 55.1932 32.8646C47.7754 30.9006 40.5019 28.2137 33.796 24.5003C27.5861 20.8545 19.3173 15.6822 20.1052 8.75304C22.6582 2.22852 32.4438 1.76188 39.6416 1.6343C47.3179 1.69086 55.0097 2.93654 62.5006 4.89642C74.3423 8.19393 86.5324 12.7008 95.2405 21.7841C97.23 24.0787 99.0641 27.1104 98.3 30.2404C99.1355 27.1256 97.3509 24.0095 95.3912 21.6545C86.7985 12.3064 74.6322 7.5138 62.7534 3.9289C55.2346 1.78996 47.4909 0.357831 39.6484 0.129758C35.7328 0.0356884 31.7669 0.227818 27.89 1.12795C24.166 2.07619 19.6021 3.62218 18.1766 8.2231C17.0762 12.9249 20.2265 16.7213 22.957 19.5276C25.8427 22.3786 29.162 24.6646 32.5833 26.6777C39.4558 30.6753 46.8555 33.5843 54.4348 35.7671C66.565 39.014 79.3284 41.5201 92.2012 37.8906C95.2539 36.8206 99.0047 34.9904 100.229 30.7704ZM96.3715 29.7105L100.229 30.7704L98.3 30.2404L96.3715 29.7105Z" fill="#3D59CC"/>
</svg>
